<?xml version="1.0" standalone="no"?>
<!DOCTYPE svg PUBLIC "-//W3C//DTD SVG 20010904//EN"
 "http://www.w3.org/TR/2001/REC-SVG-20010904/DTD/svg10.dtd">
<svg version="1.0" xmlns="http://www.w3.org/2000/svg"
 width="53.000000pt" height="40.000000pt" viewBox="0 0 53.000000 40.000000"
 preserveAspectRatio="xMidYMid meet">

<g transform="translate(0.000000,40.000000) scale(0.100000,-0.100000)"
fill="#000000" stroke="none">
<path d="M307 393 c-16 -26 -108 -366 -103 -380 12 -29 24 -1 77 184 39 133
50 186 42 194 -6 6 -13 7 -16 2z"/>
<path d="M72 277 c-34 -34 -62 -69 -62 -78 0 -17 120 -139 138 -139 23 0 12
23 -38 76 -28 29 -50 57 -50 63 0 5 23 34 50 64 28 30 50 60 50 66 0 25 -29 8
-88 -52z"/>
<path d="M370 329 c0 -6 23 -36 50 -66 28 -30 50 -59 50 -64 0 -6 -22 -34 -50
-63 -50 -53 -61 -76 -37 -76 18 0 137 122 137 141 0 8 -28 43 -63 77 -60 59
-87 75 -87 51z"/>
</g>
</svg>
