<?xml version="1.0" standalone="no"?>
<!DOCTYPE svg PUBLIC "-//W3C//DTD SVG 20010904//EN"
 "http://www.w3.org/TR/2001/REC-SVG-20010904/DTD/svg10.dtd">
<svg version="1.0" xmlns="http://www.w3.org/2000/svg"
 width="48.000000pt" height="49.000000pt" viewBox="0 0 48.000000 49.000000"
 preserveAspectRatio="xMidYMid meet">

<g transform="translate(0.000000,49.000000) scale(0.100000,-0.100000)"
fill="#000000" stroke="none">
<path d="M180 471 c-71 -23 -122 -66 -156 -131 -28 -53 -25 -153 7 -210 70
-127 238 -163 352 -76 62 47 91 106 91 186 1 95 -44 169 -128 212 -43 22 -128
32 -166 19z m119 -32 c37 -13 38 -19 9 -46 -30 -26 -107 -26 -137 1 -28 25
-27 32 7 44 37 14 83 14 121 1z m14 -127 c39 -37 39 -102 -2 -143 -64 -64
-171 -20 -171 69 0 97 101 140 173 74z m-226 -4 c34 -32 33 -105 -3 -138 -21
-21 -27 -22 -34 -10 -17 27 -22 98 -10 134 14 42 16 43 47 14z m353 -19 c11
-42 7 -102 -10 -129 -7 -12 -13 -10 -34 10 -35 32 -37 103 -4 137 30 32 36 29
48 -18z m-130 -204 c13 -14 21 -28 17 -31 -14 -15 -90 -23 -128 -15 -54 12
-57 17 -29 46 19 20 33 25 70 25 37 0 51 -5 70 -25z"/>
</g>
</svg>
