<?xml version="1.0" standalone="no"?>
<!DOCTYPE svg PUBLIC "-//W3C//DTD SVG 20010904//EN"
 "http://www.w3.org/TR/2001/REC-SVG-20010904/DTD/svg10.dtd">
<svg version="1.0" xmlns="http://www.w3.org/2000/svg"
 width="43.000000pt" height="40.000000pt" viewBox="0 0 43.000000 40.000000"
 preserveAspectRatio="xMidYMid meet">

<g transform="translate(0.000000,40.000000) scale(0.100000,-0.100000)"
fill="#000000" stroke="none">
<path d="M0 211 l0 -189 27 7 c24 6 34 24 90 172 35 90 66 172 69 182 5 15 -4
17 -90 17 l-96 0 0 -189z"/>
<path d="M276 293 c25 -60 57 -137 71 -173 31 -77 37 -86 63 -93 19 -5 20 1
20 184 l0 189 -99 0 -100 0 45 -107z"/>
<path d="M167 231 c-9 -27 -17 -51 -17 -55 0 -3 18 -6 41 -6 37 0 40 2 33 22
-9 29 -34 88 -37 88 -1 0 -10 -22 -20 -49z"/>
<path d="M116 94 c-17 -51 -14 -64 15 -64 10 0 19 -7 19 -15 0 -21 76 -21 84
0 3 8 15 15 26 15 24 0 25 11 4 67 l-17 43 -57 0 -58 0 -16 -46z"/>
</g>
</svg>
